<?xml version="1.0" encoding="UTF-8" standalone="no"?>
<svg
   xmlns:dc="http://purl.org/dc/elements/1.1/"
   xmlns:cc="http://creativecommons.org/ns#"
   xmlns:rdf="http://www.w3.org/1999/02/22-rdf-syntax-ns#"
   xmlns:svg="http://www.w3.org/2000/svg"
   xmlns="http://www.w3.org/2000/svg"
   xmlns:sodipodi="http://sodipodi.sourceforge.net/DTD/sodipodi-0.dtd"
   xmlns:inkscape="http://www.inkscape.org/namespaces/inkscape"
   width="100"
   height="100"
   viewBox="0 0 26.458332 26.458332"
   version="1.1"
   id="svg8"
   inkscape:version="1.0.2 (e86c870879, 2021-01-15)"
   sodipodi:docname="lock.svg">
  <defs
     id="defs2">
    <filter
       inkscape:collect="always"
       style="color-interpolation-filters:sRGB"
       id="filter1459"
       x="-0.23359425"
       width="1.4671885"
       y="-0.14837938"
       height="1.2967588">
      <feGaussianBlur
         inkscape:collect="always"
         stdDeviation="2.0415241"
         id="feGaussianBlur1461" />
    </filter>
  </defs>
  <sodipodi:namedview
     id="base"
     pagecolor="#ffffff"
     bordercolor="#666666"
     borderopacity="1.0"
     inkscape:pageopacity="0.0"
     inkscape:pageshadow="2"
     inkscape:zoom="2.8"
     inkscape:cx="8.1214232"
     inkscape:cy="60.536197"
     inkscape:document-units="mm"
     inkscape:current-layer="layer1"
     showgrid="false"
     inkscape:snap-global="false"
     inkscape:window-width="1920"
     inkscape:window-height="1017"
     inkscape:window-x="-8"
     inkscape:window-y="-8"
     inkscape:window-maximized="1"
     inkscape:document-rotation="0"
     units="px" />
  <metadata
     id="metadata5">
    <rdf:RDF>
      <cc:Work
         rdf:about="">
        <dc:format>image/svg+xml</dc:format>
        <dc:type
           rdf:resource="http://purl.org/dc/dcmitype/StillImage" />
        <dc:title></dc:title>
      </cc:Work>
    </rdf:RDF>
  </metadata>
  <g
     inkscape:label="shade"
     inkscape:groupmode="layer"
     id="layer1"
     transform="translate(0,-267)"
     style="display:inline;opacity:0.8496732;filter:url(#filter1459)">
    <path
       style="display:inline;fill:#000000;fill-opacity:1;stroke:none;stroke-width:0.340699;stroke-miterlimit:4;stroke-dasharray:none;stroke-opacity:1"
       d="m 8.1598097,279.90631 c -0.5325103,0.15433 -1.1310171,0.644 -1.4225131,1.16383 l -0.2780135,0.49579 v 4.19166 c 0,4.63801 -0.018006,4.48162 0.5965342,5.18154 0.1669723,0.19017 0.506704,0.44036 0.7549584,0.55595 l 0.4513726,0.2102 h 5.0930937 5.093093 l 0.451373,-0.2102 c 0.248255,-0.11559 0.587987,-0.36578 0.754957,-0.55595 0.614541,-0.69992 0.596535,-0.54353 0.596535,-5.18154 v -4.19166 l -0.278014,-0.49579 c -0.302124,-0.53879 -0.892541,-1.01026 -1.463795,-1.16893 -0.41709,-0.11584 -9.9484841,-0.11116 -10.3495813,0.005 z m 6.0058693,3.40436 c 0.469096,0.25159 0.825151,0.74329 0.878045,1.21257 0.06275,0.55672 -0.102682,0.98487 -0.529557,1.37053 l -0.363455,0.32836 0.233638,1.05228 c 0.128503,0.57874 0.233472,1.10297 0.233269,1.16495 -2.76e-4,0.0849 -0.322081,0.11268 -1.307448,0.11268 -0.718894,0 -1.307078,-0.0314 -1.307078,-0.0699 0,-0.0384 0.121448,-0.56721 0.269885,-1.17509 l 0.269887,-1.10522 -0.328385,-0.28833 c -1.167969,-1.02549 -0.449451,-2.76775 1.142168,-2.76952 0.313045,-3.7e-4 0.612692,0.0613 0.809031,0.16668 z"
       id="path4559-7-1-8"
       inkscape:connector-curvature="0" />
    <path
       style="display:inline;fill:#000000;fill-opacity:0.996078;stroke:none;stroke-width:0.279092;stroke-miterlimit:4;stroke-dasharray:none;stroke-opacity:1"
       d="m -0.72254329,265.75335 c 0.001407,-3.30714 0.032829,-3.61103 0.4671675,-4.52077 0.6047296,-1.26664 1.71789619,-2.15097 3.07601549,-2.44369 0.326625,-0.0704 0.989354,-0.10386 2.074253,-0.10473 1.80135,-0.002 2.357275,0.0911 3.191785,0.53153 0.675085,0.35626 1.511018,1.21904 1.846356,1.90564 0.4442603,0.90962 0.4934373,1.22112 0.4934373,3.12544 v 1.69303 l -0.208608,-0.2625 c -0.3111463,-0.39153 -0.6390203,-0.64362 -1.0295013,-0.79155 l -0.349515,-0.13242 -0.047458,-0.80147 c -0.06808,-1.14971 -0.326789,-1.76741 -1.00656,-2.40326 -0.699212,-0.65403 -1.372653,-0.87196 -2.694453,-0.87196 -1.110311,0 -1.753177,0.14109 -2.324078,0.51009 -0.758975,0.49054 -1.252968,1.22796 -1.4169901,2.11524 -0.046567,0.25192 -0.07937,1.46132 -0.07937,2.92646 v 2.4971 h -0.99688129 -0.9968804 z"
       id="path839-8-0"
       inkscape:connector-curvature="0" />
  </g>
  <g
     inkscape:groupmode="layer"
     id="layer2"
     inkscape:label="top"
     style="display:inline;opacity:1">
    <path
       style="display:inline;fill:#000000;fill-opacity:1;stroke:none;stroke-width:0.340699;stroke-miterlimit:4;stroke-dasharray:none;stroke-opacity:1"
       d="m 8.1598097,12.906308 c -0.5325103,0.154335 -1.1310171,0.644003 -1.4225131,1.163834 l -0.2780135,0.495792 v 4.191655 c 0,4.638014 -0.018006,4.48162 0.5965342,5.181543 0.1669723,0.190165 0.506704,0.440359 0.7549584,0.555952 l 0.4513726,0.210201 h 5.0930937 5.093093 l 0.451373,-0.210201 c 0.248255,-0.115593 0.587987,-0.365787 0.754957,-0.555952 0.614541,-0.699923 0.596535,-0.543529 0.596535,-5.181543 v -4.191655 l -0.278014,-0.495792 c -0.302124,-0.538789 -0.892541,-1.010263 -1.463795,-1.16893 -0.41709,-0.115844 -9.9484841,-0.111158 -10.3495813,0.0049 z m 6.0058693,3.404362 c 0.469096,0.251591 0.825151,0.743288 0.878045,1.212566 0.06275,0.556724 -0.102682,0.984876 -0.529557,1.370538 l -0.363455,0.328352 0.233638,1.05228 c 0.128503,0.57874 0.233472,1.102978 0.233269,1.164953 -2.76e-4,0.0849 -0.322081,0.112681 -1.307448,0.112681 -0.718894,0 -1.307078,-0.03142 -1.307078,-0.06993 0,-0.03837 0.121448,-0.567214 0.269885,-1.175089 l 0.269887,-1.105224 -0.328385,-0.288324 c -1.167969,-1.025494 -0.449451,-2.767749 1.142168,-2.769522 0.313045,-3.68e-4 0.612692,0.06132 0.809031,0.166676 z"
       id="path4559-7-1"
       inkscape:connector-curvature="0" />
    <path
       style="display:inline;fill:#000000;fill-opacity:0.996078;stroke:none;stroke-width:0.279092;stroke-miterlimit:4;stroke-dasharray:none;stroke-opacity:1"
       d="m -0.72254328,-1.2466507 c 0.001407,-3.307141 0.032829,-3.6110264 0.4671675,-4.5207677 0.6047296,-1.26664 1.71789618,-2.1509758 3.07601548,-2.443694 0.326625,-0.070409 0.989354,-0.1038557 2.074253,-0.1047309 1.80135,-0.00156 2.357275,0.091133 3.191785,0.5315315 0.675085,0.3562662 1.511018,1.2190416 1.846356,1.9056452 0.4442603,0.9096163 0.4934373,1.2211128 0.4934373,3.1254376 v 1.6930263 l -0.208608,-0.262499 C 9.9067167,-1.7142274 9.5788427,-1.9663175 9.1883617,-2.1142473 L 8.8388467,-2.2466652 8.7913887,-3.048143 c -0.06808,-1.1497107 -0.326789,-1.7674057 -1.00656,-2.4032541 -0.699212,-0.6540326 -1.372653,-0.8719653 -2.694453,-0.8719653 -1.110311,0 -1.753177,0.141092 -2.324078,0.5100882 -0.758975,0.490544 -1.252968,1.2279664 -1.4169901,2.1152482 -0.046567,0.2519182 -0.07937,1.4613166 -0.07937,2.92645429 V 1.7255273 h -0.99688128 -0.9968804 z"
       id="path839-8"
       inkscape:connector-curvature="0" />
  </g>
</svg>
