<?xml version="1.0" encoding="UTF-8" standalone="no"?>
<!-- Created with Inkscape (http://www.inkscape.org/) -->

<svg
   xmlns:dc="http://purl.org/dc/elements/1.1/"
   xmlns:cc="http://creativecommons.org/ns#"
   xmlns:rdf="http://www.w3.org/1999/02/22-rdf-syntax-ns#"
   xmlns:svg="http://www.w3.org/2000/svg"
   xmlns="http://www.w3.org/2000/svg"
   xmlns:sodipodi="http://sodipodi.sourceforge.net/DTD/sodipodi-0.dtd"
   xmlns:inkscape="http://www.inkscape.org/namespaces/inkscape"
   width="30mm"
   height="30mm"
   viewBox="0 0 30 30"
   version="1.1"
   id="svg8"
   inkscape:version="0.92.5 (2060ec1f9f, 2020-04-08)"
   sodipodi:docname="lock.svg">
  <defs
     id="defs2">
    <filter
       inkscape:collect="always"
       style="color-interpolation-filters:sRGB"
       id="filter1486"
       x="-0.28664138"
       width="1.5732828"
       y="-0.33253343"
       height="1.6650669">
      <feGaussianBlur
         inkscape:collect="always"
         stdDeviation="1.963238"
         id="feGaussianBlur1488" />
    </filter>
    <filter
       inkscape:collect="always"
       style="color-interpolation-filters:sRGB"
       id="filter1490"
       x="-0.33021962"
       width="1.6604392"
       y="-0.36668694"
       height="1.7333739">
      <feGaussianBlur
         inkscape:collect="always"
         stdDeviation="1.963238"
         id="feGaussianBlur1492" />
    </filter>
  </defs>
  <sodipodi:namedview
     id="base"
     pagecolor="#ffffff"
     bordercolor="#666666"
     borderopacity="1.0"
     inkscape:pageopacity="0.0"
     inkscape:pageshadow="2"
     inkscape:zoom="2.8"
     inkscape:cx="8.1214232"
     inkscape:cy="60.536197"
     inkscape:document-units="mm"
     inkscape:current-layer="layer1"
     showgrid="false"
     inkscape:snap-global="false"
     inkscape:window-width="1280"
     inkscape:window-height="744"
     inkscape:window-x="0"
     inkscape:window-y="19"
     inkscape:window-maximized="1" />
  <metadata
     id="metadata5">
    <rdf:RDF>
      <cc:Work
         rdf:about="">
        <dc:format>image/svg+xml</dc:format>
        <dc:type
           rdf:resource="http://purl.org/dc/dcmitype/StillImage" />
        <dc:title></dc:title>
      </cc:Work>
    </rdf:RDF>
  </metadata>
  <g
     inkscape:label="Layer 1"
     inkscape:groupmode="layer"
     id="layer1"
     transform="translate(0,-267)"
     style="display:inline">
    <path
       style="display:inline;fill:#000000;fill-opacity:1;stroke:none;stroke-width:0.40605783;stroke-miterlimit:4;stroke-dasharray:none;stroke-opacity:1;filter:url(#filter1486)"
       d="m 9.99795,293.50115 c -0.634666,-0.18394 -1.347989,-0.76755 -1.695405,-1.3871 l -0.331347,-0.59091 v -4.99577 c 0,-5.52776 -0.02146,-5.34136 0.710972,-6.17556 0.199004,-0.22665 0.603909,-0.52484 0.899788,-0.6626 l 0.537963,-0.25053 h 6.070143 6.070141 l 0.537963,0.25053 c 0.29588,0.13776 0.700785,0.43595 0.899787,0.6626 0.732433,0.8342 0.710973,0.6478 0.710973,6.17556 v 4.99577 l -0.331348,0.59091 c -0.360083,0.64215 -1.063764,1.20407 -1.744606,1.39317 -0.497104,0.13807 -11.856981,0.13248 -12.335024,-0.006 z m 7.158023,-4.05745 c 0.559087,-0.29986 0.983446,-0.88588 1.046487,-1.44518 0.07479,-0.66353 -0.12238,-1.17381 -0.631146,-1.63346 l -0.433179,-0.39134 0.278459,-1.25415 c 0.153154,-0.68976 0.278261,-1.31457 0.278019,-1.38844 -3.17e-4,-0.10118 -0.383869,-0.13429 -1.558267,-0.13429 -0.856805,0 -1.557825,0.0374 -1.557825,0.0833 0,0.0457 0.144747,0.67603 0.32166,1.40051 l 0.321661,1.31725 -0.391382,0.34364 c -1.392029,1.22222 -0.535672,3.2987 1.361279,3.30082 0.373099,4.5e-4 0.73023,-0.0731 0.964234,-0.19865 z"
       id="path4559-7-3"
       inkscape:connector-curvature="0" />
    <path
       style="display:inline;fill:#000000;fill-opacity:0.99607843;stroke:none;stroke-width:0.35714287;stroke-miterlimit:4;stroke-dasharray:none;stroke-opacity:1;filter:url(#filter1490)"
       d="m 9.0107019,277.65221 c 0.0018,-4.23202 0.04201,-4.62089 0.597816,-5.78505 0.7738491,-1.62087 2.1983251,-2.75252 3.9362581,-3.1271 0.417969,-0.0901 1.266037,-0.1329 2.654341,-0.13402 2.305117,-0.002 3.016513,0.11662 4.084402,0.68018 0.86388,0.4559 1.933591,1.55996 2.36271,2.43858 0.568503,1.164 0.631433,1.56261 0.631433,3.9995 v 2.1665 l -0.266948,-0.33591 c -0.398162,-0.50102 -0.817729,-0.82361 -1.317413,-1.01291 l -0.44726,-0.16945 -0.06073,-1.02562 c -0.08712,-1.47124 -0.41818,-2.26168 -1.288056,-3.07535 -0.894754,-0.83694 -1.75653,-1.11582 -3.447986,-1.11582 -1.420823,0 -2.243473,0.18055 -2.974033,0.65274 -0.97123,0.62773 -1.603374,1.57138 -1.813267,2.7068 -0.05959,0.32237 -0.101567,1.86999 -0.101567,3.74487 v 3.19544 h -1.27567 -1.2756691 z"
       id="path839-6"
       inkscape:connector-curvature="0" />
  </g>
  <g
     inkscape:groupmode="layer"
     id="layer2"
     inkscape:label="top"
     style="display:inline">
    <path
       style="fill:#000000;fill-opacity:1;stroke:none;stroke-width:0.40605783;stroke-miterlimit:4;stroke-dasharray:none;stroke-opacity:1"
       d="M 9.99795,26.501149 C 9.363284,26.317206 8.649961,25.733602 8.302545,25.114047 L 7.971198,24.523144 V 19.52737 c 0,-5.52776 -0.02146,-5.341364 0.710972,-6.175559 0.199004,-0.226646 0.603909,-0.524836 0.899788,-0.662605 l 0.537963,-0.250525 h 6.070143 6.070141 l 0.537963,0.250525 c 0.29588,0.137769 0.700785,0.435959 0.899787,0.662605 0.732433,0.834195 0.710973,0.647799 0.710973,6.175559 v 4.995774 l -0.331348,0.590903 c -0.360083,0.642149 -1.063764,1.20407 -1.744606,1.393175 -0.497104,0.138067 -11.856981,0.132483 -12.335024,-0.0058 z m 7.158023,-4.057448 c 0.559087,-0.299856 0.983446,-0.885879 1.046487,-1.445182 0.07479,-0.663525 -0.12238,-1.173812 -0.631146,-1.633459 l -0.433179,-0.391343 0.278459,-1.254146 c 0.153154,-0.689765 0.278261,-1.314572 0.278019,-1.388436 -3.29e-4,-0.101189 -0.383869,-0.134297 -1.558267,-0.134297 -0.856805,0 -1.557825,0.03745 -1.557825,0.08334 0,0.04573 0.144747,0.676028 0.32166,1.400516 l 0.321661,1.317248 -0.391382,0.343635 c -1.392029,1.222223 -0.535672,3.298708 1.361279,3.300821 0.373099,4.39e-4 0.73023,-0.07308 0.964234,-0.19865 z"
       id="path4559-7"
       inkscape:connector-curvature="0" />
    <path
       style="display:inline;fill:#000000;fill-opacity:0.99607843;stroke:none;stroke-width:0.35714287;stroke-miterlimit:4;stroke-dasharray:none;stroke-opacity:1"
       d="m 9.0107019,10.652208 c 0.0018,-4.2320199 0.04201,-4.6208902 0.597816,-5.7850507 0.7738491,-1.62087 2.1983251,-2.75252 3.9362581,-3.1271 0.417969,-0.0901 1.266037,-0.1329 2.654341,-0.13402 2.305117,-0.002 3.016513,0.11662 4.084402,0.68018 0.86388,0.4559 1.933591,1.55996 2.36271,2.43858 0.568503,1.1640005 0.631433,1.5626105 0.631433,3.9995008 v 2.1664999 l -0.266948,-0.33591 C 22.612552,10.053868 22.192985,9.7312781 21.693301,9.5419781 l -0.44726,-0.16945 -0.06073,-1.02562 c -0.08712,-1.47124 -0.41818,-2.2616803 -1.288056,-3.0753507 -0.894754,-0.8369401 -1.75653,-1.1158201 -3.447986,-1.1158201 -1.420823,0 -2.243473,0.18055 -2.974033,0.65274 -0.97123,0.6277301 -1.603374,1.5713808 -1.813267,2.7068008 -0.05959,0.32237 -0.101567,1.86999 -0.101567,3.7448699 v 3.19544 h -1.27567 -1.2756691 z"
       id="path839"
       inkscape:connector-curvature="0" />
  </g>
</svg>
